<svg width="61" height="33" viewBox="0 0 61 33" fill="none" xmlns="http://www.w3.org/2000/svg">
<path d="M52.489 33C51.4553 33.0008 50.4446 32.6951 49.5847 32.1217C48.7248 31.5483 48.0545 30.7329 47.6583 29.7787C47.2622 28.8245 47.1582 27.7743 47.3594 26.761C47.5606 25.7477 48.058 24.8168 48.7887 24.086C49.5194 23.3552 50.4505 22.8575 51.4643 22.6556C52.4781 22.4538 53.5291 22.557 54.4842 22.9522C55.4393 23.3474 56.2557 24.0167 56.83 24.8757C57.4044 25.7346 57.711 26.7444 57.711 27.7775C57.7103 29.1617 57.1601 30.4891 56.181 31.4683C55.202 32.4474 53.8741 32.9983 52.489 33ZM52.489 24.4601C51.8324 24.4594 51.1902 24.6533 50.6438 25.0173C50.0974 25.3814 49.6714 25.8992 49.4195 26.5054C49.1677 27.1115 49.1014 27.7786 49.2291 28.4224C49.3567 29.0661 49.6726 29.6576 50.1367 30.1219C50.6007 30.5862 51.1922 30.9026 51.8362 31.0309C52.4803 31.1592 53.1479 31.0937 53.7547 30.8427C54.3614 30.5918 54.8801 30.1666 55.245 29.621C55.6099 29.0753 55.8047 28.4338 55.8047 27.7775C55.8044 26.8984 55.4551 26.0554 54.8334 25.4335C54.2118 24.8115 53.3687 24.4615 52.489 24.4601Z" fill="white"/>
<path d="M24.9508 33C23.917 33.001 22.9062 32.6956 22.0461 32.1223C21.1861 31.5491 20.5155 30.7338 20.1192 29.7796C19.7229 28.8254 19.6187 27.7752 19.8197 26.7618C20.0208 25.7484 20.5181 24.8173 21.2487 24.0865C21.9794 23.3556 22.9105 22.8577 23.9243 22.6557C24.9382 22.4538 25.9892 22.5569 26.9443 22.9521C27.8995 23.3472 28.716 24.0166 29.2904 24.8755C29.8649 25.7345 30.1715 26.7444 30.1715 27.7775C30.1705 29.1614 29.6203 30.4884 28.6416 31.4675C27.6629 32.4465 26.3356 32.9976 24.9508 33ZM24.9508 24.4601C24.294 24.4591 23.6518 24.6528 23.1052 25.0167C22.5586 25.3806 22.1324 25.8984 21.8804 26.5045C21.6283 27.1106 21.5619 27.7777 21.6894 28.4216C21.8169 29.0654 22.1326 29.657 22.5967 30.1215C23.0607 30.5859 23.6522 30.9024 24.2962 31.0308C24.9403 31.1592 25.608 31.0938 26.2148 30.8429C26.8217 30.5919 27.3404 30.1667 27.7054 29.6211C28.0704 29.0754 28.2652 28.4338 28.2652 27.7775C28.2645 26.8988 27.9153 26.0561 27.294 25.4343C26.6727 24.8124 25.8301 24.4621 24.9508 24.4601Z" fill="white"/>
<path d="M59.3644 28.7301H56.7579C56.5051 28.7301 56.2626 28.6297 56.0839 28.4511C55.9051 28.2724 55.8047 28.0301 55.8047 27.7775C55.8047 27.5249 55.9051 27.2826 56.0839 27.104C56.2626 26.9253 56.5051 26.825 56.7579 26.825H59.095V21.7739C59.0944 21.091 58.9194 20.4196 58.5866 19.8231L53.4269 10.5783C53.3829 10.4994 53.3185 10.4337 53.2406 10.388C53.1626 10.3422 53.0738 10.318 52.9834 10.318H45.9517V26.8288H48.2215C48.4743 26.8288 48.7167 26.9291 48.8955 27.1078C49.0742 27.2864 49.1746 27.5287 49.1746 27.7813C49.1746 28.034 49.0742 28.2762 48.8955 28.4549C48.7167 28.6335 48.4743 28.7339 48.2215 28.7339H44.9986C44.7458 28.7339 44.5034 28.6335 44.3246 28.4549C44.1459 28.2762 44.0455 28.034 44.0455 27.7813V9.36543C44.0455 9.1128 44.1459 8.87052 44.3246 8.69188C44.5034 8.51324 44.7458 8.41289 44.9986 8.41289H52.9834C53.4134 8.41268 53.8357 8.52723 54.2066 8.7447C54.5774 8.96218 54.8835 9.27468 55.093 9.64993L60.2515 18.896C60.7419 19.776 60.9995 20.7666 61 21.7739V27.0955C60.9993 27.5288 60.8268 27.9442 60.5202 28.2506C60.2136 28.557 59.798 28.7294 59.3644 28.7301Z" fill="white"/>
<path d="M20.682 28.7301H11.5432C11.2904 28.7301 11.048 28.6297 10.8692 28.4511C10.6905 28.2724 10.5901 28.0301 10.5901 27.7775V20.4518C10.5901 20.1992 10.6905 19.9569 10.8692 19.7782C11.048 19.5996 11.2904 19.4993 11.5432 19.4993C11.796 19.4993 12.0384 19.5996 12.2172 19.7782C12.3959 19.9569 12.4964 20.1992 12.4964 20.4518V26.825H20.682C20.9348 26.825 21.1772 26.9253 21.3559 27.104C21.5347 27.2826 21.6351 27.5249 21.6351 27.7775C21.6351 28.0301 21.5347 28.2724 21.3559 28.4511C21.1772 28.6297 20.9348 28.7301 20.682 28.7301Z" fill="white"/>
<path d="M11.5432 17.0722C11.2904 17.0722 11.048 16.9718 10.8692 16.7932C10.6905 16.6145 10.5901 16.3722 10.5901 16.1196V9.72359C10.5901 9.47096 10.6905 9.22867 10.8692 9.05004C11.048 8.8714 11.2904 8.77104 11.5432 8.77104C11.796 8.77104 12.0384 8.8714 12.2172 9.05004C12.3959 9.22867 12.4964 9.47096 12.4964 9.72359V16.1234C12.4954 16.3754 12.3945 16.6167 12.2159 16.7945C12.0372 16.9723 11.7953 17.0722 11.5432 17.0722Z" fill="white"/>
<path d="M44.9986 28.7301H29.2183C28.9655 28.7301 28.7231 28.6297 28.5444 28.4511C28.3656 28.2724 28.2652 28.0301 28.2652 27.7775C28.2652 27.5249 28.3656 27.2826 28.5444 27.104C28.7231 26.9253 28.9655 26.825 29.2183 26.825H44.0455V1.90509H12.4964V5.82831C12.4964 6.08094 12.3959 6.32322 12.2172 6.50186C12.0384 6.6805 11.796 6.78086 11.5432 6.78086C11.2904 6.78086 11.048 6.6805 10.8692 6.50186C10.6905 6.32322 10.5901 6.08094 10.5901 5.82831V1.72982C10.5907 1.27103 10.7735 0.831243 11.0982 0.506947C11.423 0.182652 11.8632 0.000335865 12.3223 0H44.2208C44.6797 0.000671901 45.1196 0.183136 45.444 0.507395C45.7685 0.831655 45.9511 1.27125 45.9517 1.72982V27.7775C45.9517 28.0301 45.8513 28.2724 45.6726 28.4511C45.4938 28.6297 45.2514 28.7301 44.9986 28.7301Z" fill="white"/>
<path d="M15.3113 21.4043H3.214C2.96121 21.4043 2.71878 21.304 2.54003 21.1253C2.36128 20.9467 2.26086 20.7044 2.26086 20.4518C2.26086 20.1992 2.36128 19.9569 2.54003 19.7782C2.71878 19.5996 2.96121 19.4993 3.214 19.4993H15.3113C15.5641 19.4993 15.8065 19.5996 15.9853 19.7782C16.164 19.9569 16.2645 20.1992 16.2645 20.4518C16.2645 20.7044 16.164 20.9467 15.9853 21.1253C15.8065 21.304 15.5641 21.4043 15.3113 21.4043Z" fill="white"/>
<path d="M24.9508 17.0722H8.06996C7.81717 17.0722 7.57473 16.9718 7.39598 16.7932C7.21724 16.6145 7.11681 16.3722 7.11681 16.1196C7.11681 15.867 7.21724 15.6247 7.39598 15.4461C7.57473 15.2674 7.81717 15.1671 8.06996 15.1671H24.9508C25.2036 15.1671 25.446 15.2674 25.6248 15.4461C25.8035 15.6247 25.9039 15.867 25.9039 16.1196C25.9039 16.3722 25.8035 16.6145 25.6248 16.7932C25.446 16.9718 25.2036 17.0722 24.9508 17.0722Z" fill="white"/>
<path d="M7.54509 12.0427H0.953145C0.700355 12.0427 0.457919 11.9424 0.27917 11.7637C0.10042 11.5851 0 11.3428 0 11.0902C0 10.8375 0.10042 10.5953 0.27917 10.4166C0.457919 10.238 0.700355 10.1376 0.953145 10.1376H7.54509C7.79788 10.1376 8.04032 10.238 8.21907 10.4166C8.39782 10.5953 8.49824 10.8375 8.49824 11.0902C8.49824 11.3428 8.39782 11.5851 8.21907 11.7637C8.04032 11.9424 7.79788 12.0427 7.54509 12.0427Z" fill="white"/>
<path d="M18.1148 6.78086H6.47884C6.22605 6.78086 5.98362 6.6805 5.80487 6.50186C5.62612 6.32322 5.5257 6.08094 5.5257 5.82831C5.5257 5.57568 5.62612 5.3334 5.80487 5.15476C5.98362 4.97612 6.22605 4.87576 6.47884 4.87576H18.1148C18.3676 4.87576 18.6101 4.97612 18.7888 5.15476C18.9676 5.3334 19.068 5.57568 19.068 5.82831C19.068 6.08094 18.9676 6.32322 18.7888 6.50186C18.6101 6.6805 18.3676 6.78086 18.1148 6.78086Z" fill="white"/>
</svg>
