<svg width="39" height="53" viewBox="0 0 39 53" fill="none" xmlns="http://www.w3.org/2000/svg">
<path d="M11.9939 53H11.9833C11.8344 52.9979 11.6894 52.9522 11.5664 52.8684C11.4434 52.7847 11.3479 52.6667 11.2916 52.5291L8.84884 46.5553L2.97742 49.2303C2.83749 49.2941 2.68145 49.3139 2.52998 49.2871C2.37852 49.2602 2.23881 49.1881 2.12938 49.0802C2.01995 48.9722 1.94599 48.8336 1.9173 48.6828C1.88862 48.5319 1.90656 48.3759 1.96877 48.2354L8.3612 33.7963C8.44256 33.6125 8.5937 33.4686 8.78136 33.3961C8.96903 33.3236 9.17785 33.3285 9.36189 33.4098C9.54593 33.491 9.69011 33.6419 9.76272 33.8292C9.83533 34.0166 9.83041 34.2251 9.74905 34.4088L4.16429 47.0255L8.94213 44.8503C9.03509 44.808 9.13568 44.7848 9.23783 44.7822C9.33999 44.7797 9.44161 44.7977 9.5366 44.8354C9.63158 44.873 9.71797 44.9294 9.79058 45.0012C9.86319 45.0729 9.92052 45.1586 9.95912 45.2531L12.0257 50.3054L18.017 36.7415C18.0981 36.5578 18.2491 36.4137 18.4366 36.3411C18.6241 36.2685 18.8329 36.2732 19.0169 36.3542C19.2009 36.4352 19.3452 36.5859 19.418 36.7732C19.4907 36.9604 19.486 37.1688 19.4048 37.3525L12.6901 52.5457C12.631 52.6809 12.5336 52.7959 12.4099 52.8766C12.2862 52.9573 12.1416 53.0002 11.9939 53Z" fill="white"/>
<path d="M15.0274 38.9447C14.7824 38.9459 14.5384 38.9145 14.3016 38.8516C13.1694 38.5487 12.4125 37.5645 11.7444 36.6938C11.3788 36.1369 10.9165 35.6498 10.3793 35.2553C9.75608 34.9787 9.08821 34.8161 8.40746 34.7752C7.27747 34.6238 6.10879 34.4678 5.29808 33.657C4.48736 32.8461 4.3281 31.6778 4.17718 30.549C4.13507 29.8707 3.97225 29.2054 3.69637 28.5842C3.3006 28.0484 2.81273 27.587 2.25543 27.2214C1.38329 26.5544 0.395872 25.7988 0.0932756 24.6691C-0.197186 23.5842 0.244952 22.5075 0.675716 21.4672C0.987062 20.8439 1.18333 20.1696 1.25512 19.4768C1.18323 18.7842 0.986959 18.1102 0.675716 17.487C0.246469 16.4468 -0.197186 15.3671 0.0932756 14.2852C0.39663 13.1555 1.38253 12.3999 2.25543 11.7329C2.81326 11.3661 3.3012 10.9031 3.69637 10.3655C3.97243 9.74468 4.13501 9.07954 4.17643 8.40154C4.3281 7.27267 4.47978 6.10594 5.29732 5.29733C6.11486 4.48872 7.27899 4.32972 8.40671 4.1783C9.08746 4.13742 9.75532 3.97483 10.3785 3.69828C10.9155 3.30345 11.3777 2.81634 11.7436 2.25974C12.411 1.38905 13.1686 0.403269 14.3001 0.101176C15.3869 -0.191831 16.4653 0.252601 17.5073 0.682649C18.1325 0.990647 18.8082 1.18377 19.5019 1.25276C20.1959 1.1813 20.8712 0.985612 21.4957 0.675077C22.5377 0.246545 23.6192 -0.197131 24.7021 0.092848C25.8344 0.395698 26.5913 1.37996 27.2594 2.25141C27.6252 2.80809 28.0875 3.29522 28.6245 3.68995C29.2465 3.96615 29.9131 4.12848 30.5925 4.16921C31.7225 4.32063 32.8912 4.4766 33.7019 5.28824C34.5126 6.09988 34.6719 7.26737 34.8228 8.39245C34.8644 9.07198 35.0272 9.73862 35.3036 10.361C35.699 10.8971 36.187 11.3586 36.7446 11.7238C37.6167 12.3908 38.6041 13.1472 38.9067 14.2761C39.1972 15.3618 38.755 16.4377 38.3243 17.4787C38.013 18.1018 37.8168 18.7758 37.7449 19.4684C37.8166 20.1611 38.0129 20.8351 38.3243 21.4582C38.7535 22.4992 39.1972 23.5781 38.9067 24.6608C38.6034 25.7897 37.6175 26.546 36.7446 27.2131C36.187 27.5783 35.699 28.0398 35.3036 28.5759C35.0278 29.1968 34.8652 29.8619 34.8236 30.5399C34.6719 31.6688 34.5164 32.8362 33.7027 33.6479C32.8889 34.4595 31.721 34.6155 30.5933 34.7662C29.9138 34.8077 29.2472 34.9705 28.6253 35.2469C28.0883 35.6418 27.6261 36.1289 27.2602 36.6855C26.5928 37.5554 25.8352 38.5419 24.7037 38.844C23.6154 39.1355 22.5385 38.6926 21.4965 38.2626C20.8714 37.9542 20.1957 37.7611 19.5019 37.6924C18.8079 37.7635 18.1324 37.9593 17.5081 38.2701C16.7323 38.652 15.89 38.881 15.0274 38.9447ZM15.0274 1.51549C14.9146 1.51452 14.8022 1.52826 14.693 1.55637C14.0597 1.72521 13.5197 2.42858 12.9487 3.17283C12.4679 3.89245 11.8522 4.51234 11.1354 4.99826C10.3444 5.38265 9.48623 5.6102 8.60844 5.66832C7.81021 5.67557 7.03143 5.915 6.3674 6.3573C5.92384 7.01997 5.68396 7.79762 5.67727 8.59461C5.61905 9.4706 5.39138 10.327 5.00686 11.1166C4.51889 11.8324 3.89668 12.4472 3.1746 12.9269C2.4291 13.4977 1.72532 14.0368 1.55544 14.6683C1.51006 15.4474 1.69041 16.2231 2.07494 16.9025C2.47076 17.7051 2.70644 18.5768 2.76886 19.4692C2.70665 20.3616 2.47096 21.2334 2.07494 22.0359C1.69011 22.7155 1.50974 23.4915 1.55544 24.2709C1.72532 24.9031 2.4291 25.4414 3.1746 26.0123C3.89668 26.492 4.51889 27.1067 5.00686 27.8226C5.39173 28.612 5.61941 29.4685 5.67727 30.3445C5.68488 31.1417 5.92496 31.9194 6.36816 32.5826C7.03221 33.0248 7.81103 33.2639 8.60919 33.2708C9.48674 33.3289 10.3447 33.5565 11.1354 33.9409C11.8527 34.4274 12.4683 35.0487 12.9479 35.7701C13.5197 36.5136 14.0597 37.217 14.6922 37.3858C15.4723 37.4301 16.2487 37.2501 16.9294 36.8672C17.7341 36.4732 18.6078 36.2392 19.5019 36.1782C20.396 36.2402 21.2694 36.4753 22.0736 36.8702C22.7539 37.2549 23.5311 37.4351 24.3116 37.3888C24.9448 37.22 25.4848 36.5166 26.0559 35.7724C26.5359 35.0516 27.1514 34.4306 27.8684 33.9439C28.6594 33.5593 29.5175 33.3315 30.3954 33.2731C31.1936 33.2666 31.9725 33.0274 32.6364 32.5849C33.0797 31.9221 33.3195 31.1445 33.3265 30.3476C33.3846 29.4716 33.6123 28.6151 33.9969 27.8256C34.4847 27.1093 35.1069 26.4943 35.8292 26.0145C36.5747 25.4437 37.2785 24.9054 37.4483 24.2732C37.4937 23.494 37.3134 22.7184 36.9288 22.0389C36.5328 21.2364 36.2971 20.3646 36.2349 19.4722C36.2973 18.5798 36.533 17.7081 36.9288 16.9056C37.3137 16.2262 37.4941 15.4504 37.4483 14.6713C37.2785 14.0391 36.5747 13.5008 35.8292 12.9299C35.1071 12.4502 34.4849 11.8355 33.9969 11.1196C33.6122 10.3302 33.3845 9.47368 33.3265 8.59764C33.319 7.80043 33.079 7.02268 32.6356 6.35957C31.9718 5.91702 31.1928 5.6778 30.3946 5.67135C29.5169 5.61192 28.659 5.38335 27.8684 4.99826C27.1514 4.51129 26.5359 3.89008 26.0559 3.16905C25.484 2.42479 24.9441 1.72218 24.3116 1.55259C23.5314 1.50778 22.7547 1.68809 22.0743 2.07197C21.27 2.46769 20.3964 2.70374 19.5019 2.76701C18.6079 2.70459 17.7345 2.46958 16.9302 2.075C16.3338 1.77824 15.6897 1.58884 15.0274 1.51549Z" fill="white"/>
<path d="M19.5019 32.3941C16.9419 32.3942 14.4394 31.6365 12.3107 30.2167C10.1821 28.7969 8.523 26.7789 7.54323 24.4177C6.56346 22.0566 6.30703 19.4584 6.80637 16.9518C7.30571 14.4451 8.53838 12.1426 10.3485 10.3354C12.1587 8.52813 14.4649 7.29737 16.9757 6.79871C19.4865 6.30006 22.089 6.55591 24.4542 7.53391C26.8193 8.51192 28.8408 10.1681 30.2631 12.2931C31.6854 14.4182 32.4445 16.9165 32.4445 19.4722C32.4407 22.898 31.0759 26.1824 28.6495 28.6049C26.2232 31.0274 22.9334 32.3901 19.5019 32.3941ZM19.5019 8.06538C17.2419 8.06523 15.0325 8.73416 13.1533 9.98759C11.2741 11.241 9.80942 13.0226 8.94448 15.1071C8.07953 17.1916 7.85318 19.4854 8.29405 21.6983C8.73493 23.9112 9.82322 25.9439 11.4213 27.5394C13.0194 29.1348 15.0555 30.2213 17.2721 30.6614C19.4887 31.1016 21.7863 30.8756 23.8743 30.0121C25.9622 29.1486 27.7468 27.6863 29.0023 25.8102C30.2578 23.9341 30.9279 21.7285 30.9277 19.4722C30.9243 16.448 29.7194 13.5486 27.5774 11.4101C25.4354 9.27167 22.5312 8.06878 19.5019 8.06538Z" fill="white"/>
<path d="M27.0099 53C26.8626 52.9998 26.7184 52.9567 26.5952 52.876C26.472 52.7953 26.3749 52.6806 26.316 52.5457L19.5997 37.3525C19.5186 37.1688 19.5138 36.9604 19.5866 36.7731C19.6593 36.5859 19.8036 36.4352 19.9876 36.3542C20.1717 36.2732 20.3804 36.2685 20.5679 36.3411C20.7555 36.4137 20.9064 36.5578 20.9876 36.7415L26.9788 50.3054L29.0454 45.2531C29.084 45.1586 29.1414 45.0729 29.214 45.0012C29.2866 44.9294 29.373 44.873 29.468 44.8354C29.5629 44.7977 29.6646 44.7797 29.7667 44.7822C29.8689 44.7848 29.9695 44.808 30.0624 44.8503L34.8403 47.0255L29.2547 34.4088C29.2145 34.3178 29.1925 34.2198 29.1902 34.1204C29.1878 34.0209 29.2051 33.922 29.2411 33.8292C29.277 33.7365 29.3309 33.6517 29.3997 33.5797C29.4685 33.5077 29.5508 33.45 29.6419 33.4098C29.733 33.3695 29.8312 33.3476 29.9308 33.3453C30.0304 33.343 30.1295 33.3602 30.2224 33.3961C30.3153 33.432 30.4003 33.4858 30.4724 33.5545C30.5445 33.6231 30.6023 33.7053 30.6426 33.7963L37.0327 48.2354C37.095 48.3759 37.1129 48.5319 37.0842 48.6828C37.0555 48.8336 36.9816 48.9722 36.8721 49.0802C36.7627 49.1881 36.623 49.2602 36.4715 49.2871C36.3201 49.3139 36.164 49.2941 36.0241 49.2303L30.1527 46.5553L27.7099 52.5291C27.6537 52.6667 27.5581 52.7847 27.4351 52.8684C27.3121 52.9522 27.1671 52.9979 27.0183 53H27.0099Z" fill="white"/>
<path d="M23.6503 26.2167C23.5274 26.2168 23.4063 26.1869 23.2976 26.1296L19.5019 24.1376L15.71 26.1296C15.5847 26.1952 15.4437 26.2244 15.3027 26.2142C15.1616 26.2039 15.0263 26.1545 14.912 26.0715C14.7976 25.9885 14.7088 25.8752 14.6554 25.7445C14.6021 25.6138 14.5865 25.4708 14.6103 25.3316L15.3353 21.1129L12.2646 18.1245C12.1632 18.0259 12.0915 17.9009 12.0575 17.7636C12.0236 17.6264 12.0289 17.4824 12.0727 17.348C12.1165 17.2136 12.1971 17.0941 12.3054 17.0031C12.4137 16.912 12.5454 16.8531 12.6855 16.8329L16.9287 16.2181L18.8247 12.3795C18.8945 12.2616 18.9939 12.1639 19.113 12.0961C19.2322 12.0282 19.367 11.9926 19.5042 11.9926C19.6413 11.9926 19.7761 12.0282 19.8953 12.0961C20.0145 12.1639 20.1138 12.2616 20.1837 12.3795L22.0796 16.2181L26.3228 16.8329C26.463 16.8531 26.5946 16.912 26.7029 17.0031C26.8113 17.0941 26.8919 17.2136 26.9357 17.348C26.9795 17.4824 26.9847 17.6264 26.9508 17.7636C26.9169 17.9009 26.8451 18.0259 26.7437 18.1245L23.673 21.1129L24.398 25.3316C24.4167 25.4402 24.4114 25.5516 24.3824 25.658C24.3535 25.7644 24.3017 25.8631 24.2305 25.9474C24.1594 26.0317 24.0707 26.0995 23.9706 26.146C23.8705 26.1925 23.7607 26.2166 23.6503 26.2167ZM19.5019 22.5257C19.6247 22.5255 19.7457 22.5552 19.8545 22.612L22.6431 24.0778L22.1123 20.9789C22.0915 20.8579 22.1006 20.7337 22.1386 20.617C22.1767 20.5002 22.2426 20.3945 22.3307 20.3088L24.5854 18.1132L21.4692 17.6589C21.3474 17.6412 21.2318 17.5942 21.1323 17.5219C21.0328 17.4496 20.9524 17.3542 20.8981 17.244L19.5019 14.4252L18.108 17.2448C18.0536 17.355 17.9733 17.4503 17.8738 17.5226C17.7743 17.5949 17.6587 17.6419 17.5369 17.6597L14.4207 18.1139L16.6754 20.3096C16.7635 20.3952 16.8294 20.501 16.8674 20.6177C16.9055 20.7344 16.9145 20.8587 16.8938 20.9797L16.3629 24.0786L19.1515 22.6151C19.2594 22.5575 19.3796 22.5268 19.5019 22.5257Z" fill="white"/>
</svg>
