<svg width="53" height="45" viewBox="0 0 53 45" fill="none" xmlns="http://www.w3.org/2000/svg">
<path id="Vector" d="M33.9653 3.0763L38.3552 1.25455C39.173 0.915149 40.1017 0.915149 40.9195 1.25455L50.0626 5.04934C51.2386 5.538 52 6.64719 52 7.87396V40.6643C52 42.3654 50.5582 43.7435 48.7799 43.7435H47.5321M27.2747 23.0777V7.8739C27.2747 6.64714 28.0361 5.53804 29.2121 5.04928L30.6119 4.46871M27.2747 23.0777L31.4953 23.0777C32.898 23.0777 34.0361 24.2114 34.0361 25.6098C34.0361 26.3091 33.7518 26.941 33.2921 27.3999C32.8314 27.8579 32.1971 28.1411 31.4953 28.1411L30.6344 28.1411M27.2747 23.0777L22.2014 23.0777C23.7417 19.151 23.4491 15.3715 22.2835 11.5624C22.1398 11.0942 21.8494 10.7006 21.4718 10.4246C21.0942 10.1486 20.6304 9.99009 20.1388 9.99009C18.8531 9.99009 17.83 11.0635 17.8967 12.3424C18.2825 19.7348 12.7751 20.1989 8.42935 25.1457L8.42938 25.4331M44.1775 43.7434H30.4948C29.9078 43.7434 29.3568 43.5922 28.8816 43.3284C28.8807 43.3284 28.8807 43.3275 28.8797 43.3275M42.051 26.5043C42.051 25.4917 41.2271 24.6707 40.2106 24.6707H38.3348C37.3183 24.6707 36.4944 25.4917 36.4944 26.5043V28.0241C36.4944 28.6737 36.9141 29.2494 37.5343 29.45L41.011 30.5751C41.6311 30.7759 42.051 31.3515 42.051 32.0012V33.0625C42.051 34.2115 41.1162 35.1429 39.9628 35.1429H38.5825C37.4293 35.1429 36.4944 34.2115 36.4944 33.0625M39.2726 22.2092V24.6707M39.2726 35.1429V37.6044M8.42938 28.2362V25.4331M8.42938 25.4331V22.2546H1V44H8.42938V41.2439M8.42938 41.2439V31.5771M8.42938 41.2439C10.2775 41.3533 11.7971 41.5864 13.2338 42.6833C13.7787 43.0994 14.4436 43.3314 15.1292 43.3314H28.7595C28.8007 43.3314 28.8417 43.3304 28.8817 43.3284C29.5354 43.2977 30.1223 43.0217 30.5564 42.5902C31.016 42.1313 31.3004 41.4985 31.3004 40.7992C31.3004 39.4017 30.1624 38.268 28.7595 38.268M29.7898 33.2046C31.1927 33.2046 32.3307 34.3383 32.3307 35.7358C32.3307 36.435 32.0463 37.0678 31.5867 37.5259C31.126 37.9848 30.4918 38.268 29.7898 38.268H28.7595M29.7898 33.2046H28.3337M29.7898 33.2046H30.6344C31.3363 33.2046 31.9715 32.9214 32.4312 32.4634C32.8909 32.0055 33.1751 31.3716 33.1751 30.6733C33.1751 29.2748 32.0382 28.1411 30.6344 28.1411M28.7595 38.268L27.4891 38.268M30.6344 28.1411L28.3337 28.1411M39.4819 10.3698C38.2871 10.3698 37.3185 9.40494 37.3185 8.21457C37.3185 7.0242 38.2871 6.05936 39.4819 6.05936C40.6767 6.05936 41.6452 7.0242 41.6452 8.21457C41.6452 9.40494 40.6767 10.3698 39.4819 10.3698Z" stroke="white" stroke-width="2" stroke-miterlimit="10" stroke-linecap="round" stroke-linejoin="round"/>
</svg>
