<svg width="52" height="52" viewBox="0 0 52 52" fill="none" xmlns="http://www.w3.org/2000/svg">
<path d="M50.2667 22.5333H45.9333V21.6667C45.9333 20.2332 44.7668 19.0667 43.3333 19.0667H42.4667V2.6C42.4667 1.16653 41.3001 0 39.8667 0C38.7383 0 37.7849 0.727133 37.4261 1.73333H27.3407C26.7973 1.73333 26.3111 2.05747 26.1031 2.56013C25.8951 3.0628 26.0095 3.63567 26.3935 4.02047L29.3055 6.93333L26.3935 9.8462C26.0095 10.2301 25.8951 10.803 26.1031 11.3065C26.3111 11.8101 26.7973 12.1333 27.3407 12.1333H37.2667V19.0667H36.4C34.9665 19.0667 33.8 20.2332 33.8 21.6667V22.5333H28.6C27.1665 22.5333 26 23.6999 26 25.1333V29.4667H19.9333C18.4999 29.4667 17.3333 30.6332 17.3333 32.0667V36.4H11.2667C9.8332 36.4 8.66667 37.5665 8.66667 39V43.3333H2.6C1.16653 43.3333 0 44.4999 0 45.9333V50.2667C0 51.2226 0.7774 52 1.73333 52H50.2667C51.2226 52 52 51.2226 52 50.2667V24.2667C52 23.3107 51.2226 22.5333 50.2667 22.5333ZM28.2915 10.4L31.1445 7.54607C31.4834 7.2072 31.4834 6.65947 31.1445 6.3206L28.2915 3.46667H37.2667V10.4H28.2915ZM39 2.6C39 2.1216 39.3883 1.73333 39.8667 1.73333C40.3451 1.73333 40.7333 2.1216 40.7333 2.6V19.0667H39V2.6ZM35.5333 21.6667C35.5333 21.1883 35.9216 20.8 36.4 20.8H43.3333C43.8117 20.8 44.2 21.1883 44.2 21.6667V22.5333H35.5333V21.6667ZM50.2667 50.2667H1.73333V45.9333C1.73333 45.4549 2.1216 45.0667 2.6 45.0667H9.53333C10.0126 45.0667 10.4 44.6793 10.4 44.2V39C10.4 38.5216 10.7883 38.1333 11.2667 38.1333H18.2C18.6793 38.1333 19.0667 37.7459 19.0667 37.2667V32.0667C19.0667 31.5883 19.4549 31.2 19.9333 31.2H26.8667C27.3459 31.2 27.7333 30.8126 27.7333 30.3333V25.1333C27.7333 24.6549 28.1216 24.2667 28.6 24.2667L50.2667 24.2649V50.2667Z" fill="white"/>
</svg>
