<svg width="8" height="14" viewBox="0 0 8 14" fill="none" xmlns="http://www.w3.org/2000/svg">
<path id="Vector" d="M1.58525 13.723L7.79723 7.51715C7.87096 7.44327 7.92331 7.36324 7.95428 7.27704C7.98524 7.19085 8.00048 7.0985 7.99999 7C7.99999 6.90149 7.98475 6.80915 7.95428 6.72295C7.9238 6.63676 7.87145 6.55673 7.79723 6.48285L1.58525 0.258576C1.41321 0.0861928 1.19815 1.18927e-06 0.94009 1.23439e-06C0.682026 1.27952e-06 0.460828 0.0923496 0.276496 0.277046C0.0921651 0.461743 -8.35265e-07 0.677222 -7.92207e-07 0.923484C-7.4915e-07 1.16975 0.0921652 1.38523 0.276497 1.56992L5.69585 7L0.276499 12.4301C0.104456 12.6025 0.0184344 12.815 0.0184344 13.0677C0.0184345 13.3203 0.1106 13.5388 0.294932 13.723C0.479263 13.9077 0.694317 14 0.940092 14C1.18587 14 1.40092 13.9077 1.58525 13.723Z" fill="#48588A"/>
</svg>
