<svg width="8" height="14" viewBox="0 0 8 14" fill="none" xmlns="http://www.w3.org/2000/svg">
<path id="Vector" d="M6.41475 13.723L0.202775 7.51715C0.129042 7.44327 0.076692 7.36324 0.0457243 7.27704C0.0147566 7.19085 -0.000481271 7.0985 1.02969e-05 7C1.03141e-05 6.90149 0.0152483 6.80915 0.0457244 6.72295C0.0762006 6.63676 0.128551 6.55673 0.202775 6.48285L6.41475 0.258576C6.58679 0.0861928 6.80185 1.18927e-06 7.05991 1.23439e-06C7.31797 1.27952e-06 7.53917 0.0923496 7.7235 0.277046C7.90783 0.461743 8 0.677222 8 0.923484C8 1.16975 7.90783 1.38523 7.7235 1.56992L2.30415 7L7.7235 12.4301C7.89554 12.6025 7.98157 12.815 7.98157 13.0677C7.98157 13.3203 7.8894 13.5388 7.70507 13.723C7.52074 13.9077 7.30568 14 7.05991 14C6.81413 14 6.59908 13.9077 6.41475 13.723Z" fill="#48588A"/>
</svg>
