<svg width="51" height="53" viewBox="0 0 51 53" fill="none" xmlns="http://www.w3.org/2000/svg">
<path d="M49.3135 31.0437H48.5257V23.8996C48.5257 22.7686 47.9665 21.7671 47.1126 21.1587V20.1859C47.1126 18.7749 45.9723 17.627 44.5707 17.627H43.9824L46.2332 14.3021C46.9876 13.1877 46.7007 11.663 45.5937 10.9034L30.3208 0.425527C29.7846 0.0575284 29.1382 -0.0782842 28.5003 0.0435537C27.8627 0.165185 27.3102 0.529456 26.9448 1.06939L13.7623 20.5431H10.094L10.9791 11.5238C10.989 11.4221 11.0546 11.334 11.1461 11.2993C12.2864 10.8665 13.2745 10.0583 13.9285 9.02354C13.98 8.94207 14.0772 8.89549 14.1778 8.90574L19.9314 9.47797C20.3439 9.51824 20.7109 9.21577 20.7516 8.80067C20.7924 8.38557 20.4912 8.01592 20.0789 7.97493L14.3252 7.40269C13.6574 7.33685 13.0205 7.64668 12.6626 8.2127C12.1818 8.97354 11.4552 9.56772 10.6169 9.88593C9.98585 10.1255 9.55254 10.696 9.48591 11.3752L8.58639 20.543H7.6298L9.02947 6.2781C9.07985 5.76466 9.53506 5.38745 10.0457 5.43889L21.6727 6.59516C22.085 6.63523 22.4522 6.33296 22.4929 5.91786C22.5336 5.50276 22.2324 5.13311 21.8201 5.09212L10.1932 3.93585C8.86011 3.80345 7.66805 4.78737 7.53633 6.12955L6.40812 17.627H4.48682C3.0853 17.627 1.94496 18.7749 1.94496 20.1859V20.8495C0.798342 21.3809 0 22.5478 0 23.8996V49.6434C0 51.4943 1.49571 53 3.33434 53H45.1915C47.03 53 48.5257 51.4943 48.5257 49.6434V42.4994H49.3135C50.2435 42.4994 51 41.7378 51 40.8017V32.7415C51.0001 31.8053 50.2435 31.0437 49.3135 31.0437ZM44.5707 19.1375C45.1451 19.1374 45.6122 19.6078 45.6122 20.186V20.5708C45.4742 20.5532 45.3341 20.5432 45.1915 20.5432H42.0085L42.9599 19.1375H44.5707ZM28.1845 1.91988C28.3244 1.71337 28.5357 1.57403 28.7796 1.52745C28.8379 1.51637 28.8964 1.51078 28.9545 1.51078C29.1393 1.51078 29.3198 1.56648 29.4759 1.67351L44.7488 12.1514C45.1722 12.4419 45.282 13.0251 44.9935 13.4514L40.193 20.5429H39.0409L41.3945 17.0661C41.7762 16.5022 41.8077 15.7847 41.4763 15.1933C41.036 14.4076 40.8575 13.4825 40.9737 12.5882C41.0601 11.9229 40.7693 11.2735 40.2149 10.8931L32.2975 5.46146C31.7429 5.08104 31.0361 5.04616 30.4527 5.37047C29.6686 5.80627 28.748 5.97738 27.8606 5.85234C27.2025 5.75938 26.5351 6.05854 26.1591 6.6139L16.73 20.543H15.5779L28.1845 1.91988ZM28.5149 14.7445C25.248 14.7445 22.5663 17.3089 22.3478 20.543H18.5454L27.3986 7.46449H27.3987C27.449 7.39006 27.5324 7.34576 27.6181 7.34576C27.6295 7.34576 27.6409 7.34659 27.6523 7.34814C28.8593 7.51811 30.1112 7.28561 31.1777 6.69278C31.2616 6.64599 31.3694 6.65272 31.4524 6.70965L39.37 12.1414C39.4528 12.1984 39.4984 12.2969 39.486 12.3926C39.328 13.6088 39.5709 14.8669 40.1696 15.9354C40.2177 16.0212 40.2118 16.1311 40.1548 16.2155L37.2255 20.5429H34.6823C34.4636 17.3089 31.782 14.7445 28.5149 14.7445ZM33.1779 20.5431H23.8521C24.067 18.1426 26.0756 16.255 28.5149 16.255C30.9544 16.2549 32.9631 18.1426 33.1779 20.5431ZM3.44529 20.1859C3.44529 19.6077 3.91243 19.1373 4.48682 19.1373H6.25995L6.12206 20.543H3.44529V20.1859ZM1.50034 23.8996C1.50034 22.8816 2.32305 22.0534 3.33434 22.0534H45.1915C46.2028 22.0534 47.0254 22.8816 47.0254 23.8996V25.9951H1.50034V23.8996ZM47.0254 49.6434C47.0254 50.6614 46.2028 51.4896 45.1915 51.4896H3.33434C2.32305 51.4896 1.50034 50.6614 1.50034 49.6434V47.5478H5.54572C5.96011 47.5478 6.29584 47.2097 6.29584 46.7927C6.29584 46.3756 5.96001 46.0375 5.54572 46.0375H1.50034V27.5055H47.0254V31.0437H39.8926C37.6453 31.0437 35.6985 32.3625 34.7747 34.2714C34.7716 34.2778 34.7681 34.2841 34.7649 34.2905C34.7571 34.3067 34.7503 34.3236 34.7427 34.34C34.6327 34.5752 34.537 34.8188 34.4592 35.0702C34.459 35.0709 34.4588 35.0715 34.4586 35.0722C34.2925 35.6094 34.2029 36.18 34.2029 36.7715C34.2029 39.9299 36.7553 42.4994 39.8925 42.4994H47.0253V46.0375H10.3491C9.93475 46.0375 9.59902 46.3756 9.59902 46.7927C9.59902 47.2097 9.93485 47.5478 10.3491 47.5478H47.0254V49.6434ZM49.4998 40.8016C49.4998 40.9049 49.4163 40.989 49.3135 40.989H39.8928C38.3047 40.989 36.92 40.0947 36.2098 38.7802C36.1775 38.7204 36.1467 38.6598 36.1172 38.5984C36.0582 38.4755 36.0051 38.3493 35.9581 38.2201C35.7934 37.7682 35.7035 37.2802 35.7035 36.7715C35.7035 36.2629 35.7935 35.7749 35.9581 35.3229C36.0052 35.1939 36.0583 35.0677 36.1172 34.9447C36.1467 34.8833 36.1775 34.8226 36.2098 34.7629C36.92 33.4484 38.3047 32.5541 39.8928 32.5541H49.3135C49.4162 32.5541 49.4998 32.6382 49.4998 32.7415V40.8016Z" fill="white"/>
<path d="M40.0686 33.7075C38.3902 33.7075 37.0249 35.0821 37.0249 36.7715C37.0249 38.461 38.3902 39.8355 40.0686 39.8355C41.7469 39.8355 43.1122 38.461 43.1122 36.7715C43.1122 35.0821 41.7469 33.7075 40.0686 33.7075ZM40.0686 38.3251C39.2176 38.3251 38.5252 37.6281 38.5252 36.7715C38.5252 35.9149 39.2176 35.2179 40.0686 35.2179C40.9195 35.2179 41.6119 35.9148 41.6119 36.7715C41.6119 37.6282 40.9195 38.3251 40.0686 38.3251Z" fill="white"/>
</svg>
