<svg width="54" height="54" viewBox="0 0 54 54" fill="none" xmlns="http://www.w3.org/2000/svg">
<path d="M39.3545 50.6505C38.8636 50.6505 38.5364 50.9773 38.5364 51.4675V52.3661H1.63636V10.2935H9.9C9.49091 11.6006 9.57273 12.4992 9.57273 13.3979C9.57273 13.888 9.9 14.2148 10.3909 14.2148H29.8636C30.3545 14.2148 30.6818 13.888 30.6818 13.3979C30.6818 12.4992 30.7636 11.6006 30.3545 10.2935H38.6182V15.9304C38.6182 16.4206 38.9455 16.7474 39.4364 16.7474C39.9273 16.7474 40.2545 16.4206 40.2545 15.9304V9.47655C40.2545 8.98638 39.9273 8.65961 39.4364 8.65961H29.6182C28.8 7.18911 27.4909 6.04539 25.8545 5.22844C25.6909 2.36914 23.1545 0 20.1273 0C17.1 0 14.5636 2.28744 14.4 5.22844C12.7636 5.96369 11.5364 7.18911 10.6364 8.65961H0.818182C0.327273 8.65961 0 8.98638 0 9.47655V53.1831C0 53.6732 0.327273 54 0.818182 54H39.3545C39.8455 54 40.1727 53.6732 40.1727 53.1831V51.4675C40.1727 51.059 39.7636 50.6505 39.3545 50.6505ZM15.4636 6.53555C15.7909 6.37216 16.0364 6.04539 15.9545 5.55522C15.9545 3.43116 17.7545 1.71558 20.0455 1.71558C22.3364 1.71558 24.1364 3.43116 24.1364 5.55522C24.0545 6.04539 24.3 6.37216 24.6273 6.53555C27.2455 7.51589 28.8818 9.88502 28.9636 12.5809H11.2091C11.2091 9.96672 12.9273 7.59758 15.4636 6.53555Z" fill="white"/>
<path d="M20.0455 9.63994C21.7636 9.63994 23.2364 8.25113 23.2364 6.45386C23.2364 4.65658 21.8455 3.26778 20.0455 3.26778C18.3273 3.26778 16.8545 4.65658 16.8545 6.45386C16.8545 8.25113 18.3273 9.63994 20.0455 9.63994ZM20.0455 4.90166C20.8636 4.90166 21.6 5.55522 21.6 6.45386C21.6 7.3525 20.9455 8.00605 20.0455 8.00605C19.2273 8.00605 18.4909 7.3525 18.4909 6.45386C18.4909 5.55522 19.2273 4.90166 20.0455 4.90166Z" fill="white"/>
<path d="M12.0273 19.1165C12.0273 18.6263 11.7 18.2995 11.2091 18.2995H5.64545C5.15455 18.2995 4.82727 18.6263 4.82727 19.1165V25.0802C4.82727 25.5703 5.15455 25.8971 5.64545 25.8971H11.2091C11.7 25.8971 12.0273 25.5703 12.0273 25.0802V19.1165ZM10.3909 24.1815H6.46364V19.8517H10.3909V24.1815Z" fill="white"/>
<path d="M12.0273 30.0635C12.0273 29.5734 11.7 29.2466 11.2091 29.2466H5.64545C5.15455 29.2466 4.82727 29.5734 4.82727 30.0635V36.0272C4.82727 36.5174 5.15455 36.8442 5.64545 36.8442H11.2091C11.7 36.8442 12.0273 36.5174 12.0273 36.0272V30.0635ZM10.3909 35.2103H6.46364V30.8805H10.3909V35.2103Z" fill="white"/>
<path d="M11.2091 40.2753H5.64545C5.15455 40.2753 4.82727 40.6021 4.82727 41.0923V47.056C4.82727 47.5461 5.15455 47.8729 5.64545 47.8729H11.2091C11.7 47.8729 12.0273 47.5461 12.0273 47.056V41.0923C12.0273 40.6021 11.6182 40.2753 11.2091 40.2753ZM10.3909 46.239H6.46364V41.9092H10.3909V46.239Z" fill="white"/>
<path d="M53.5091 26.2239L38.6182 18.1362C38.3727 17.9728 38.0455 17.9728 37.8818 18.1362C36.9 18.6263 25.0364 24.9985 23.0727 26.0605C22.8273 26.2239 22.6636 26.5507 22.6636 26.7958V39.8669C22.6636 40.1119 22.8273 40.4387 23.0727 40.5204L37.8818 49.8336C38.1273 49.997 38.4545 49.997 38.7 49.8336L53.5909 41.9092C53.8364 41.7458 54 41.5008 54 41.174V26.9592C54 26.7141 53.8364 26.3873 53.5091 26.2239ZM38.2909 19.77L51.5455 26.9592L48.1091 28.8381L34.8545 21.5673L38.2909 19.77ZM44.8364 31.0439L31.0909 23.6097L33.0545 22.5477L47.2091 30.3086V34.3116L45.2455 35.3737V31.7791C45.2455 31.4523 45.0818 31.1256 44.8364 31.0439ZM29.3727 24.5083L42.7091 31.7791L38.2909 34.23L25.1182 26.7958L29.3727 24.5083ZM24.2182 39.295V28.1029L37.3909 35.5371V47.6278L24.2182 39.295ZM39.1091 47.7095V35.6188L43.6091 33.1679V36.7625C43.6091 37.0893 43.7727 37.3343 44.0182 37.4977C44.2636 37.6611 44.5909 37.6611 44.8364 37.4977L48.4364 35.5371C48.6818 35.3737 48.8455 35.1286 48.8455 34.8018V30.3086L52.3636 28.4297V40.7655L39.1091 47.7095Z" fill="white"/>
<path d="M26.8364 22.0575C26.8364 21.5673 26.5091 21.2405 26.0182 21.2405H14.3182C13.8273 21.2405 13.5 21.5673 13.5 22.0575C13.5 22.5477 13.8273 22.8744 14.3182 22.8744H26.0182C26.4273 22.8744 26.8364 22.5477 26.8364 22.0575Z" fill="white"/>
<path d="M21.0273 32.2693H14.2364C13.7455 32.2693 13.4182 32.5961 13.4182 33.0862C13.4182 33.5764 13.7455 33.9032 14.2364 33.9032H21.0273C21.5182 33.9032 21.8455 33.5764 21.8455 33.0862C21.8455 32.5961 21.4364 32.2693 21.0273 32.2693Z" fill="white"/>
<path d="M12.9273 44.0333C12.9273 44.5234 13.2545 44.8502 13.7455 44.8502H24.4636C24.9545 44.8502 25.2818 44.5234 25.2818 44.0333C25.2818 43.5431 24.9545 43.2163 24.4636 43.2163H13.7455C13.3364 43.2163 12.9273 43.6248 12.9273 44.0333Z" fill="white"/>
</svg>
