<svg width="51" height="50" viewBox="0 0 51 50" fill="none" xmlns="http://www.w3.org/2000/svg">
<path d="M47.8683 21.6574C47.6691 15.9611 45.3701 10.6345 41.3333 6.58404C37.1021 2.33775 31.4788 0 25.5 0C13.4246 0 3.55782 9.64391 3.13251 21.6574C1.28976 22.4791 0 24.3297 0 26.4806V32.4061C0 35.3159 2.35914 37.6838 5.25988 37.6838C7.13678 37.6838 8.66319 36.1522 8.66319 34.269V24.6169C8.66319 22.8487 7.31162 21.4069 5.5933 21.2355C6.2276 10.7691 14.9111 2.4479 25.5 2.4479C30.8282 2.4479 35.8384 4.53188 39.6093 8.31552C43.072 11.7899 45.0985 16.3185 45.4035 21.2364C43.6868 21.4093 42.3376 22.8503 42.3376 24.6169V34.2682C42.3376 36.051 43.7103 37.5018 45.449 37.6528V40.0917C45.449 42.8383 43.2216 45.0724 40.4843 45.0724H36.8078C36.6272 44.5551 36.3442 44.0769 35.9474 43.6803C35.2521 42.9794 34.325 42.5935 33.3378 42.5935H29.5482C29.0041 42.5935 28.4821 42.7093 28.0039 42.9329C26.6995 43.5343 25.857 44.8545 25.857 46.2963C25.857 47.2869 26.2417 48.2171 26.9386 48.9131C27.6355 49.614 28.5626 50 29.5482 50H33.3378C34.9089 50 36.2938 48.9809 36.8102 47.5203H40.4843C44.5675 47.5203 47.8886 44.1879 47.8886 40.0917V37.2171C49.72 36.3905 51 34.5464 51 32.4045V26.4789C51 24.3297 49.7102 22.4791 47.8683 21.6574ZM6.22273 24.6169V34.2682C6.22273 34.801 5.79091 35.2351 5.25907 35.2351C3.7042 35.2351 2.43883 33.9654 2.43883 32.4053V26.4798C2.43883 24.9188 3.7042 23.65 5.25907 23.65C5.79091 23.65 6.22273 24.0841 6.22273 24.6169ZM34.5617 46.5591C34.4405 47.1351 33.9249 47.5537 33.337 47.5537H29.5474C29.214 47.5537 28.9009 47.4232 28.6618 47.1833C28.426 46.9475 28.2958 46.6325 28.2958 46.298C28.2958 45.8092 28.5813 45.3629 29.0285 45.1564C29.1879 45.0814 29.3628 45.043 29.5474 45.043H33.337C33.6704 45.043 33.9835 45.1727 34.2217 45.4126C34.4576 45.6484 34.5877 45.9634 34.5877 46.298C34.5885 46.3877 34.5787 46.4775 34.5617 46.5591ZM48.5604 32.4053C48.5604 33.9654 47.295 35.2351 45.7401 35.2351C45.2091 35.2351 44.7765 34.8018 44.7765 34.2682V24.6169C44.7765 24.0841 45.2083 23.65 45.7401 23.65C47.295 23.65 48.5604 24.9196 48.5604 26.4798V32.4053Z" fill="white"/>
<path d="M33.3988 32.8272C36.2491 32.8272 38.5676 30.5 38.5676 27.6409V17.0733C38.5676 15.691 38.0292 14.3888 37.0517 13.408C36.0742 12.4272 34.7772 11.887 33.3988 11.887H17.6012C14.7509 11.887 12.4324 14.2133 12.4324 17.0733V27.6409C12.4324 30.5008 14.7509 32.8272 17.6012 32.8272H17.698V35.5655C17.698 36.61 18.3185 37.5369 19.2781 37.9278C19.5879 38.0526 19.91 38.1146 20.2287 38.1146C20.8931 38.1146 21.5405 37.8503 22.0146 37.3582L26.5547 32.8272H33.3988ZM25.1926 30.735L20.2792 35.6382C20.2572 35.661 20.2409 35.6782 20.1946 35.6578C20.1385 35.6349 20.1385 35.5982 20.1385 35.5655V31.6032C20.1385 30.9276 19.5928 30.3793 18.9186 30.3793H17.6021C16.0968 30.3793 14.8729 29.1504 14.8729 27.6409V17.0733C14.8729 15.5629 16.0968 14.3349 17.6021 14.3349H33.3996C34.1266 14.3349 34.8105 14.6205 35.3277 15.1386C35.8449 15.6576 36.1287 16.3446 36.1287 17.0733V27.6409C36.1287 29.1512 34.904 30.3793 33.3996 30.3793H26.053C25.7301 30.3793 25.4211 30.5074 25.1926 30.735Z" fill="white"/>
<path d="M19.5741 20.7468C18.582 20.7468 17.7745 21.5578 17.7745 22.5525C17.7745 23.5472 18.5828 24.3582 19.5741 24.3582C20.567 24.3582 21.3754 23.5472 21.3754 22.5525C21.3754 21.5578 20.5678 20.7468 19.5741 20.7468Z" fill="white"/>
<path d="M25.4992 20.7468C24.5071 20.7468 23.6995 21.5578 23.6995 22.5525C23.6995 23.5472 24.5079 24.3582 25.4992 24.3582C26.4929 24.3582 27.3005 23.5472 27.3005 22.5525C27.3005 21.5578 26.4929 20.7468 25.4992 20.7468Z" fill="white"/>
<path d="M31.4243 20.7468C30.4322 20.7468 29.6246 21.5578 29.6246 22.5525C29.6246 23.5472 30.433 24.3582 31.4243 24.3582C32.4172 24.3582 33.2255 23.5472 33.2255 22.5525C33.2255 21.5578 32.4172 20.7468 31.4243 20.7468Z" fill="white"/>
</svg>
