<svg width="46" height="46" viewBox="0 0 46 46" fill="none" xmlns="http://www.w3.org/2000/svg">
<g id="Vector">
<path d="M36.3739 28.4954C35.4308 27.5148 34.2932 26.9905 33.0876 26.9905C31.8917 26.9905 30.7444 27.5051 29.7624 28.4857L26.6901 31.5439C26.4373 31.4079 26.1845 31.2817 25.9414 31.1555C25.5914 30.9808 25.2608 30.8157 24.9789 30.641C22.1009 28.8157 19.4855 26.4371 16.977 23.3595C15.7617 21.8255 14.945 20.5343 14.3519 19.2236C15.1492 18.4955 15.8881 17.7382 16.6076 17.0101C16.8798 16.7382 17.152 16.4567 17.4243 16.1848C19.4661 14.146 19.4661 11.5053 17.4243 9.46647L14.77 6.81601C14.4686 6.51505 14.1574 6.20437 13.8658 5.8937C13.2824 5.29176 12.6699 4.67041 12.0379 4.08789C11.0948 3.15587 9.96693 2.66073 8.78076 2.66073C7.59458 2.66073 6.4473 3.15587 5.47502 4.08789C5.4653 4.0976 5.4653 4.0976 5.45558 4.10731L2.14984 7.43737C0.905332 8.68007 0.195572 10.1946 0.0400077 11.9519C-0.193338 14.7868 0.642818 17.4275 1.28452 19.1557C2.8596 23.3983 5.21251 27.3303 8.72242 31.5439C12.981 36.6215 18.1049 40.6311 23.958 43.4563C26.1942 44.5146 29.1791 45.767 32.514 45.9806C32.7182 45.9903 32.9321 46 33.1265 46C35.3725 46 37.2587 45.1942 38.7365 43.5923C38.7463 43.5728 38.7657 43.5631 38.7754 43.5437C39.281 42.9321 39.8644 42.3787 40.4769 41.7865C40.895 41.3884 41.3228 40.9709 41.7409 40.534C42.7034 39.5341 43.209 38.369 43.209 37.1749C43.209 35.971 42.6937 34.8157 41.7117 33.8448L36.3739 28.4954ZM39.8547 38.7185C39.8449 38.7185 39.8449 38.7282 39.8547 38.7185C39.4755 39.1263 39.0866 39.4952 38.6685 39.903C38.0365 40.5049 37.3948 41.136 36.792 41.8447C35.81 42.8932 34.653 43.3884 33.1362 43.3884C32.9904 43.3884 32.8348 43.3884 32.689 43.3787C29.8013 43.1942 27.1179 42.068 25.1052 41.1069C19.6022 38.4467 14.77 34.67 10.7545 29.8837C7.43902 25.8934 5.22223 22.2042 3.7541 18.2431C2.84988 15.8256 2.51931 13.9421 2.66515 12.1655C2.76238 11.0296 3.1999 10.0878 4.00689 9.282L7.32235 5.97136C7.79876 5.52477 8.30434 5.28205 8.8002 5.28205C9.41274 5.28205 9.9086 5.65098 10.2197 5.96166C10.2294 5.97136 10.2392 5.98107 10.2489 5.99078C10.842 6.54417 11.4059 7.11698 11.999 7.72863C12.3004 8.0393 12.6115 8.34998 12.9226 8.67036L15.577 11.3208C16.6076 12.3499 16.6076 13.3014 15.577 14.3305C15.295 14.612 15.0228 14.8936 14.7408 15.1654C13.9241 16.0004 13.1463 16.7771 12.3004 17.5343C12.2809 17.5537 12.2615 17.5635 12.2518 17.5829C11.4156 18.4178 11.5712 19.2333 11.7462 19.7867C11.7559 19.8159 11.7656 19.845 11.7754 19.8741C12.4657 21.544 13.438 23.1168 14.9158 24.9905L14.9255 25.0003C17.609 28.3012 20.4383 30.874 23.5593 32.8448C23.958 33.0972 24.3663 33.3011 24.7552 33.4953C25.1052 33.6701 25.4358 33.8351 25.7178 34.0099C25.7567 34.0293 25.7956 34.0584 25.8345 34.0778C26.165 34.2429 26.4762 34.3205 26.797 34.3205C27.604 34.3205 28.1096 33.8157 28.2749 33.6506L31.6 30.3303C31.9306 30.0002 32.4556 29.6021 33.0682 29.6021C33.671 29.6021 34.1668 29.9808 34.4683 30.3109C34.478 30.3206 34.478 30.3206 34.4877 30.3303L39.8449 35.6797C40.8464 36.67 40.8464 37.6894 39.8547 38.7185Z" fill="white"/>
<path d="M24.8622 10.9422C27.4095 11.3694 29.7236 12.5732 31.5709 14.4179C33.4182 16.2625 34.6141 18.5732 35.0516 21.1168C35.1586 21.7576 35.7128 22.2042 36.3447 22.2042C36.4225 22.2042 36.4906 22.1945 36.5684 22.1848C37.2878 22.0683 37.7643 21.3887 37.6476 20.6702C37.1226 17.5926 35.6642 14.7868 33.4376 12.5635C31.2111 10.3402 28.4013 8.88395 25.3192 8.35969C24.5997 8.24318 23.9288 8.7189 23.8024 9.42763C23.676 10.1364 24.1427 10.8257 24.8622 10.9422Z" fill="white"/>
<path d="M45.98 20.2916C45.1147 15.2237 42.7229 10.6121 39.0477 6.94223C35.3725 3.27237 30.7542 0.884049 25.6789 0.0199818C24.9691 -0.10623 24.2983 0.379201 24.1719 1.08793C24.0552 1.80637 24.5316 2.47626 25.2511 2.60247C29.7819 3.36946 33.9141 5.51506 37.2003 8.78686C40.4866 12.0684 42.6256 16.1945 43.3937 20.7188C43.5007 21.3595 44.0549 21.8061 44.6869 21.8061C44.7646 21.8061 44.8327 21.7964 44.9105 21.7867C45.6202 21.6799 46.1064 21.0003 45.98 20.2916Z" fill="white"/>
</g>
</svg>
