<svg width="38" height="51" viewBox="0 0 38 51" fill="none" xmlns="http://www.w3.org/2000/svg">
<g id="Vector">
<path d="M37.6908 10.9363L27.1352 0.311279C26.9373 0.112061 26.6693 0 26.3888 0H4.22216C1.89357 0 0 1.90603 0 4.25003V46.7501C0 49.094 1.89357 51 4.22226 51H33.7778C36.1064 51 38 49.094 38 46.75V11.6875C38 11.4053 37.8887 11.1355 37.6908 10.9363ZM27.4444 3.62747L34.3962 10.625H29.5555C28.3917 10.625 27.4444 9.67147 27.4444 8.50007V3.62747ZM35.8889 46.75C35.8889 47.9214 34.9416 48.8749 33.7778 48.8749H4.22226C3.05851 48.8749 2.11118 47.9214 2.11118 46.75V4.25003C2.11118 3.07863 3.05851 2.12507 4.22226 2.12507H25.3333V8.50007C25.3333 10.844 27.2269 12.75 29.5556 12.75H35.8889V46.75Z" fill="white"/>
<path d="M24.3819 31.1912C23.4046 30.4171 22.4759 29.6213 21.8574 28.9988C21.0534 28.1895 20.3369 27.405 19.7144 26.658C20.6855 23.6375 21.1112 22.0801 21.1112 21.25C21.1112 17.7232 19.8453 16.9999 17.9445 16.9999C16.5003 16.9999 14.7778 17.7553 14.7778 21.3517C14.7778 22.9372 15.6407 24.8619 17.3508 27.0989C16.9323 28.3845 16.4405 29.8673 15.8881 31.5388C15.6221 32.3409 15.3335 33.0838 15.0283 33.7707C14.7799 33.8817 14.5387 33.9948 14.3057 34.112C13.4666 34.5344 12.6698 34.9141 11.9307 35.2669C8.5599 36.8731 6.33333 37.9356 6.33333 40.0336C6.33333 41.5568 7.97753 42.4999 9.5 42.4999C11.4626 42.4999 14.4262 39.8613 16.591 35.4162C18.8381 34.5239 21.6317 33.8629 23.8366 33.4489C25.6034 34.8165 27.5548 36.1249 28.5 36.1249C31.1173 36.1249 31.6667 34.6017 31.6667 33.3244C31.6667 30.8124 28.8154 30.8124 27.4444 30.8124C27.0187 30.8125 25.8766 30.9391 24.3819 31.1912ZM9.5 40.375C8.89695 40.375 8.48874 40.0886 8.44441 40.0336C8.44441 39.2803 10.6761 38.2157 12.8347 37.1865C12.9718 37.1211 13.111 37.0557 13.2522 36.9883C11.6668 39.3022 10.0989 40.375 9.5 40.375ZM16.8889 21.3517C16.8889 19.125 17.5755 19.125 17.9445 19.125C18.6909 19.125 19.0001 19.125 19.0001 21.25C19.0001 21.6982 18.7032 22.8188 18.1599 24.5683C17.3311 23.2837 16.8889 22.1828 16.8889 21.3517ZM17.6981 32.7715C17.7641 32.5868 17.828 32.4 17.8899 32.2112C18.2816 31.0283 18.6342 29.9658 18.9485 29.0091C19.3866 29.4947 19.8588 29.9918 20.3649 30.5012C20.5628 30.7004 21.0535 31.1486 21.7071 31.7099C20.406 31.9953 19.0217 32.3491 17.6981 32.7715ZM29.5556 33.3245C29.5556 33.8018 29.5556 34 28.5763 34.0062C28.2887 33.944 27.6238 33.5497 26.8033 32.9873C27.1011 32.9542 27.3207 32.9375 27.4444 32.9375C29.0041 32.9375 29.4463 33.091 29.5556 33.3245Z" fill="white"/>
</g>
</svg>
