<svg width="48" height="44" viewBox="0 0 48 44" fill="none" xmlns="http://www.w3.org/2000/svg">
<g id="Vector" opacity="0.3">
<path d="M34.9047 44C34.5687 44 34.2247 43.958 33.8847 43.868L2.95902 35.586C0.839046 35.002 -0.424942 32.806 0.131053 30.686L4.03301 16.142C4.17701 15.608 4.72501 15.298 5.257 15.434C5.791 15.576 6.10699 16.126 5.965 16.658L2.06503 31.198C1.78704 32.258 2.42303 33.362 3.48502 33.656L34.3987 41.934C35.4607 42.214 36.5567 41.582 36.8327 40.526L38.3947 34.738C38.5387 34.204 39.0867 33.886 39.6207 34.032C40.1547 34.176 40.4687 34.726 40.3267 35.258L38.7667 41.038C38.2967 42.818 36.6767 44 34.9047 44Z" fill="black"/>
<path d="M43.9986 32H11.9989C9.79296 32 7.99898 30.206 7.99898 28V4C7.99898 1.794 9.79296 0 11.9989 0H43.9986C46.2046 0 47.9986 1.794 47.9986 4V28C47.9986 30.206 46.2046 32 43.9986 32ZM11.9989 2C10.8969 2 9.99896 2.898 9.99896 4V28C9.99896 29.102 10.8969 30 11.9989 30H43.9986C45.1006 30 45.9986 29.102 45.9986 28V4C45.9986 2.898 45.1006 2 43.9986 2H11.9989Z" fill="black"/>
<path d="M17.9989 14C15.7929 14 13.9989 12.206 13.9989 10C13.9989 7.794 15.7929 6 17.9989 6C20.2049 6 21.9988 7.794 21.9988 10C21.9988 12.206 20.2049 14 17.9989 14ZM17.9989 8C16.8969 8 15.9989 8.898 15.9989 10C15.9989 11.102 16.8969 12 17.9989 12C19.1009 12 19.9989 11.102 19.9989 10C19.9989 8.898 19.1009 8 17.9989 8Z" fill="black"/>
<path d="M9.13896 29.86C8.88297 29.86 8.62697 29.762 8.43097 29.568C8.04098 29.178 8.04098 28.544 8.43097 28.154L17.8769 18.708C19.0089 17.576 20.9868 17.576 22.1188 18.708L24.9308 21.52L32.7147 12.18C33.2807 11.502 34.1127 11.108 34.9987 11.1H35.0207C35.8967 11.1 36.7267 11.48 37.2987 12.146L47.7586 24.35C48.1186 24.768 48.0706 25.4 47.6506 25.76C47.2326 26.12 46.6026 26.074 46.2406 25.652L35.7807 13.448C35.5867 13.224 35.3187 13.1 35.0207 13.1C34.8127 13.082 34.4467 13.226 34.2527 13.46L25.7668 23.642C25.5868 23.858 25.3248 23.988 25.0428 24C24.7588 24.02 24.4888 23.908 24.2908 23.708L20.7049 20.122C20.3269 19.746 19.6689 19.746 19.2909 20.122L9.84496 29.568C9.65096 29.762 9.39496 29.86 9.13896 29.86Z" fill="black"/>
</g>
</svg>
